<svg width="201" height="93" viewBox="0 0 201 93" fill="none" xmlns="http://www.w3.org/2000/svg">
<g id="rzlx3ix170a15794fu8qdyc8ytgp6bpi 2" clip-path="url(#clip0_8080_1815)">
<g id="Clip path group">
<mask id="mask0_8080_1815" style="mask-type:luminance" maskUnits="userSpaceOnUse" x="0" y="0" width="201" height="93">
<g id="clip0">
<path id="Vector" d="M201 0H0V93H201V0Z" fill="white"/>
</g>
</mask>
<g mask="url(#mask0_8080_1815)">
<g id="Group">
<path id="Vector_2" d="M182.745 0.288818H176.089V74.0342H198.148L201 67.3914H182.745V0.288818Z" fill="#201E5B"/>
<path id="Vector_3" d="M61.6122 0.288818H55.0516V17.8106L61.6122 14.9224V0.288818Z" fill="#201E5B"/>
<path id="Vector_4" d="M61.6122 21.4689H55.0516V74.0342H61.6122V21.4689Z" fill="#201E5B"/>
<path id="Vector_5" d="M116.854 21.4689V7.02796H132.352L135.204 0.288818H110.293V74.0342H116.854V28.1118H131.211L134.063 21.4689H116.854Z" fill="#201E5B"/>
<path id="Vector_6" d="M167.151 67.3914H148.801V28.1118H164.299L167.151 21.4689H148.801V7.02796H167.151V0.288818H142.24V21.4689H139.198L136.345 28.1118H142.24V74.0342H164.299L167.151 67.3914Z" fill="#201E5B"/>
<path id="Vector_7" d="M56.7629 82.9875H55.0516V92.8075H56.7629V82.9875Z" fill="#201E5B"/>
<path id="Vector_8" d="M68.1728 89.823L63.2284 82.9875H61.5171V92.8075H63.2284V85.7796L68.2679 92.8075H69.8841V82.9875H68.1728V89.823Z" fill="#201E5B"/>
<path id="Vector_9" d="M73.9727 84.5279H76.9201V92.8075H78.6315V84.5279H81.579V82.9875H73.9727V84.5279Z" fill="#201E5B"/>
<path id="Vector_10" d="M85.6675 92.8075H92.3232V91.2671H87.3788V88.5714H92.2281V87.0309H87.3788V84.5279H92.3232V82.9875H85.6675V92.8075Z" fill="#201E5B"/>
<path id="Vector_11" d="M104.113 86.0684C104.113 84.2391 102.877 82.9875 100.975 82.9875H96.6967V92.8075H98.4083V89.149H100.12L102.306 92.8075H104.303L101.926 88.9565C102.972 88.7638 104.113 87.8013 104.113 86.0684ZM98.4083 87.6086V84.5279H100.69C101.641 84.5279 102.306 85.1056 102.306 86.0684C102.306 87.0309 101.641 87.6086 100.69 87.6086H98.4083Z" fill="#201E5B"/>
<path id="Vector_12" d="M115.237 89.823L110.293 82.9875H108.487V92.8075H110.198V85.7796L115.237 92.8075H116.854V82.9875H115.237V89.823Z" fill="#201E5B"/>
<path id="Vector_13" d="M124.46 82.9875L120.657 92.8075H122.559L123.224 90.8819H127.693L128.359 92.8075H130.26L126.457 82.9875H124.46ZM123.7 89.4378L125.506 84.7204L127.218 89.3417H123.7V89.4378Z" fill="#201E5B"/>
<path id="Vector_14" d="M132.542 84.5279H135.394V92.8075H137.106V84.5279H140.053V82.9875H132.542V84.5279Z" fill="#201E5B"/>
<path id="Vector_15" d="M145.853 82.9875H144.142V92.8075H145.853V82.9875Z" fill="#201E5B"/>
<path id="Vector_16" d="M155.076 82.8914C152.224 82.8914 150.132 85.0092 150.132 87.9938C150.132 90.8819 152.129 93.0964 155.076 93.0964C157.929 93.0964 160.02 90.9783 160.02 87.9938C160.02 85.0092 158.024 82.8914 155.076 82.8914ZM155.076 91.4596C153.08 91.4596 151.843 89.9194 151.843 87.8974C151.843 85.8757 153.08 84.3355 155.076 84.3355C156.978 84.3355 158.309 85.8757 158.309 87.8974C158.309 89.9194 157.073 91.4596 155.076 91.4596Z" fill="#201E5B"/>
<path id="Vector_17" d="M171.05 89.823L166.105 82.9875H164.394V92.8075H166.105V85.7796L171.145 92.8075H172.761V82.9875H171.05V89.823Z" fill="#201E5B"/>
<path id="Vector_18" d="M180.273 82.9875L176.469 92.8075H178.371L179.036 90.8819H183.505L184.171 92.8075H186.072L182.269 82.9875H180.273ZM179.607 89.4378L181.318 84.8167L183.03 89.4378H179.607Z" fill="#201E5B"/>
<path id="Vector_19" d="M191.682 82.9875H189.971V92.8075H195.866V91.2671H191.682V82.9875Z" fill="#201E5B"/>
<path id="Vector_20" d="M96.2212 6.73914C91.2772 2.59938 84.7166 0.385091 77.0152 0.288818H70.4546V74.0342H77.0152V57.4753C92.5133 57.3789 105.159 44.5746 105.159 28.8819C105.159 19.3509 102.021 11.7453 96.2212 6.73914ZM77.0152 50.8322V7.02796C83.5758 7.02796 98.5034 9.33852 98.5034 28.9783C98.5034 41.0125 88.9002 50.7361 77.0152 50.8322Z" fill="#201E5B"/>
<path id="Vector_21" d="M46.114 21.4689H33.183L30.3306 28.1118H39.6485V85.972C20.5374 84.3355 6.46547 67.8727 6.46547 46.4036C6.46547 19.0621 26.8126 6.64286 45.7337 6.64286H46.019V0H45.7337C33.8487 0 22.6291 4.13974 14.2621 11.7453C4.94419 20.2174 0 32.2516 0 46.4036C0 58.9194 4.18353 70.5684 11.79 79.0404C19.6816 87.8974 30.711 92.7112 42.7862 92.7112H46.019V24.8385V21.4689H46.114Z" fill="#201E5B"/>
</g>
</g>
</g>
</g>
<defs>
<clipPath id="clip0_8080_1815">
<rect width="201" height="93" fill="white"/>
</clipPath>
</defs>
</svg>
